<?xml version="1.0" encoding="utf-8"?>
<!-- Generator: Adobe Illustrator 24.1.2, SVG Export Plug-In . SVG Version: 6.00 Build 0)  -->
<svg version="1.1" id="Layer_1" xmlns="http://www.w3.org/2000/svg" xmlns:xlink="http://www.w3.org/1999/xlink" x="0px" y="0px"
	 width="69px" height="69px" viewBox="0 0 69 69" style="enable-background:new 0 0 69 69;" xml:space="preserve">
<style type="text/css">
	.sm_st0{fill:#FFFFFF;}
	.sm_st1{fill:#0F3447;}
</style>
<g id="Group_25" transform="translate(-1451 -7479)">
	<g transform="matrix(1, 0, 0, 1, 1451, 7479)">
		<circle id="Ellipse_2_copy_4-2" class="sm_st0" cx="34.5" cy="33.5" r="31.5"/>
	</g>
	<g id="Component_33_38" transform="translate(1471 7500)">
		<path id="Path_189" class="sm_st1" d="M29.5,2.8c-1.1,0.5-2.3,0.8-3.5,1c1.3-0.8,2.2-1.9,2.7-3.4c-1.2,0.7-2.5,1.2-3.8,1.5
			c-2.3-2.4-6.1-2.6-8.6-0.3c-1.6,1.5-2.2,3.7-1.8,5.8C9.7,7.2,5.1,4.9,2.1,1.1C0.4,3.9,1.3,7.4,3.9,9.2C3,9.2,2,8.9,1.2,8.4
			c0,0,0,0.1,0,0.1c0,2.9,2,5.4,4.9,5.9c-0.9,0.2-1.8,0.3-2.7,0.1C4.1,17,6.4,18.7,9,18.8c-2.1,1.7-4.8,2.6-7.5,2.6
			c-0.5,0-1,0-1.4-0.1C2.8,23.1,6,24,9.3,24c11.1,0,17.2-9.2,17.2-17.2c0-0.3,0-0.5,0-0.8C27.7,5.1,28.7,4.1,29.5,2.8z"/>
	</g>
</g>
</svg>
