<?xml version="1.0" encoding="UTF-8"?> <!-- Generator: Adobe Illustrator 24.1.2, SVG Export Plug-In . SVG Version: 6.00 Build 0) --> <svg xmlns="http://www.w3.org/2000/svg" xmlns:xlink="http://www.w3.org/1999/xlink" version="1.1" id="sp_4" x="0px" y="0px" width="105px" height="105px" viewBox="0 0 105 105" style="enable-background:new 0 0 105 105;" xml:space="preserve"> 

<linearGradient id="SVGID_4_" gradientUnits="userSpaceOnUse" x1="52.4608" y1="105.525" x2="52.4608" y2="3.5" gradientTransform="matrix(1 0 0 -1 0 107)"> 

<stop offset="0" stop-color="#00FBFF"></stop> 
<stop offset="1" stop-color="#00B1B4"></stop> 

</linearGradient> <path class="st0" d="M9.7,96.6h85.5c0.6,0,1.1,0.5,1.1,1.1s-0.5,1.1-1.1,1.1H9.7c-0.6,0-1.1-0.5-1.1-1.1S9.1,96.6,9.7,96.6z M98.6,101.3H6.4c-0.6,0-1.1,0.5-1.1,1.1s0.5,1.1,1.1,1.1h92.2c0.6,0,1.1-0.5,1.1-1.1S99.2,101.3,98.6,101.3z M42.7,94.2h19.6 c0.6,0,1.1-0.5,1.1-1.1S62.9,92,62.3,92H42.7c-0.6,0-1.1,0.5-1.1,1.1C41.6,93.7,42.1,94.2,42.7,94.2z M71.2,93 c0,0.6,0.5,1.1,1.1,1.1h19.6c0.6,0,1.1-0.5,1.1-1.1s-0.5-1.1-1.1-1.1H72.3C71.7,91.9,71.2,92.4,71.2,93z M13.1,94.2h19.6 c0.6,0,1.1-0.5,1.1-1.1S33.3,92,32.7,92H13.1c-0.6,0-1.1,0.5-1.1,1.1S12.5,94.2,13.1,94.2z M51.4,26.5v-2.8h-0.3c-1.6,0-3-1.3-3-3 v-1c0-1.8,1.5-3.3,3.3-3.3v-0.6c0-0.6,0.5-1.1,1.1-1.1s1.1,0.5,1.1,1.1v0.7h0.3c1.6,0,3,1.3,3,3c0,0.6-0.5,1.1-1.1,1.1 s-1.1-0.5-1.1-1.1c0-0.4-0.3-0.7-0.7-0.7h-0.3v2.7H54c1.6,0,3,1.3,3,3v1.3c0,1.6-1.3,3-3,3h-0.3v0.6c0,0.6-0.5,1.1-1.1,1.1 s-1.1-0.5-1.1-1.1v-0.6h-0.3c-1.6,0-3-1.3-3-3c0-0.6,0.5-1.1,1.1-1.1s1.1,0.5,1.1,1.1c0,0.4,0.3,0.7,0.7,0.7H51.4z M51.1,21.5h0.3 v-2.8c-0.6,0-1,0.5-1,1v1C50.4,21.2,50.7,21.5,51.1,21.5z M53.6,26.5h0.3c0.4,0,0.7-0.3,0.7-0.7v-1.3c0-0.4-0.3-0.7-0.7-0.7h-0.3 V26.5z M52.5,10.9c6.4,0,11.7,5.2,11.7,11.7c0,6.4-5.2,11.7-11.7,11.7c-6.4,0-11.7-5.2-11.7-11.7C40.8,16.2,46.1,10.9,52.5,10.9z M43.1,22.6c0,5.2,4.2,9.4,9.4,9.4s9.4-4.2,9.4-9.4s-4.2-9.4-9.4-9.4C47.3,13.2,43.1,17.4,43.1,22.6z M63.4,43.1 c0-0.6-0.5-1.1-1.1-1.1H42.7c-0.6,0-1.1,0.5-1.1,1.1s0.5,1.1,1.1,1.1h19.6C62.9,44.2,63.4,43.7,63.4,43.1z M33.8,43.1 c0-0.6-0.5-1.1-1.1-1.1H13.1c-0.6,0-1.1,0.5-1.1,1.1s0.5,1.1,1.1,1.1h19.6C33.3,44.2,33.8,43.7,33.8,43.1z M91.9,42H72.3 c-0.6,0-1.1,0.5-1.1,1.1s0.5,1.1,1.1,1.1h19.6c0.6,0,1.1-0.5,1.1-1.1S92.5,42,91.9,42z M17.8,87.2V48.9h-1.4c-0.6,0-1.1-0.5-1.1-1.1 s0.5-1.1,1.1-1.1h12.9c0.6,0,1.1,0.5,1.1,1.1s-0.5,1.1-1.1,1.1h-1.4v38.3h1.4c0.6,0,1.1,0.5,1.1,1.1s-0.5,1.1-1.1,1.1H16.4 c-0.6,0-1.1-0.5-1.1-1.1s0.5-1.1,1.1-1.1H17.8z M25.7,48.9H24v38.3h1.7V48.9z M20.1,87.2h1.7V48.9h-1.7V87.2z M57.6,48.9v38.3H59 c0.6,0,1.1,0.5,1.1,1.1s-0.5,1.1-1.1,1.1H46c-0.6,0-1.1-0.5-1.1-1.1s0.5-1.1,1.1-1.1h1.4V48.9H46c-0.6,0-1.1-0.5-1.1-1.1 s0.5-1.1,1.1-1.1h12.9c0.6,0,1.1,0.5,1.1,1.1s-0.5,1.1-1.1,1.1H57.6z M49.7,87.2h1.7V48.9h-1.7V87.2z M55.3,48.9h-1.7v38.3h1.7V48.9 z M77,87.2V48.9h-1.4c-0.6,0-1.1-0.5-1.1-1.1s0.5-1.1,1.1-1.1h12.9c0.6,0,1.1,0.5,1.1,1.1s-0.5,1.1-1.1,1.1h-1.4v38.3h1.4 c0.6,0,1.1,0.5,1.1,1.1s-0.5,1.1-1.1,1.1H75.6c-0.6,0-1.1-0.5-1.1-1.1s0.5-1.1,1.1-1.1H77z M84.9,48.9h-1.7v38.3h1.7V48.9z M79.3,87.2H81V48.9h-1.7V87.2z M102.2,38.4c0,0.6-0.5,1.1-1.1,1.1l0,0H3.9c-0.5,0-0.9-0.3-1.1-0.8s0-1,0.4-1.3L51.8,1.7 c0.4-0.3,0.9-0.3,1.3,0l48.6,35.8C102,37.7,102.2,38,102.2,38.4z M97.7,37.3L52.5,4L7.3,37.3H97.7z"></path> </svg> 