<?xml version="1.0" encoding="UTF-8"?> <!-- Generator: Adobe Illustrator 24.1.2, SVG Export Plug-In . SVG Version: 6.00 Build 0) --> <svg xmlns="http://www.w3.org/2000/svg" xmlns:xlink="http://www.w3.org/1999/xlink" version="1.1" id="sp_1" x="0px" y="0px" width="105px" height="105px" viewBox="0 0 105 105" style="enable-background:new 0 0 105 105;" xml:space="preserve">

<linearGradient id="SVGID_1_" gradientUnits="userSpaceOnUse" x1="52.55" y1="105.5" x2="52.55" y2="3.5" gradientTransform="matrix(1 0 0 -1 0 107)"> 
<stop offset="0" stop-color="#00FBFF"></stop> 
<stop offset="1" stop-color="#00B1B4"></stop> 
</linearGradient> 


<path class="st0" d="M99.9,45.3L99.9,45.3L97.1,44v-0.1l-2.6-28.6C94.1,7.6,87.7,1.5,79.9,1.5S65.8,7.6,65.3,15.3L62.8,44L60,45.3 c-2.2,0.9-3.7,3.1-3.7,5.5v1.7c0,0.5,0.4,1,1,1c0.5,0,1-0.4,1-1v-1.7c0-1.6,1-3.1,2.5-3.7l11.3-5.3c1.8-1,2.8-2.3,2.8-3.9v-3.3 l1,0.6c1.3,0.9,2.8,1.4,3.9,1.4c1.3,0,2.8-0.6,4.2-1.6l1-0.7v3.6c0,1,0.4,2.8,2.9,3.9l11.3,5.3c1.5,0.6,2.4,2.1,2.4,3.7v1.7 c0,0.5,0.4,1,1,1c0.5,0,1-0.4,1-1v-1.7C103.5,48.4,102.1,46.3,99.9,45.3z M88.6,40c-1.5-0.7-1.7-1.5-1.7-2.1V32l0.1-0.2 c1.3-1.9,2.2-4.2,2.7-6.6c0-0.3,0-0.5-0.2-0.7c-0.1-0.2-0.4-0.4-0.6-0.4c-0.3,0-0.5,0-0.7,0.2c-0.2,0.1-0.4,0.4-0.4,0.6 c-0.7,3.8-2.4,6.1-3.6,7.4c-1.4,1.5-3.2,2.4-4.4,2.4c-0.8,0-4.3-1-6.6-5.5c-0.9-1.8-1.4-4-1.4-6.5c0-0.9,0.6-1.7,1.5-1.9 c6.5-1.3,9.6-7.5,10.6-10.1c0.2-0.5-0.1-1.1-0.6-1.3S82.2,9.5,82,10c-2.7,6.9-7.3,8.5-9.1,8.9c-1.8,0.4-3.1,2-3.1,3.8 c0,2.8,0.5,5.2,1.6,7.4c0.4,0.8,0.9,1.6,1.4,2.3l0.1,0.2v0.3v5c0,0.5-0.2,1.3-1.7,2.1l-6.3,3l2.4-27.6c0.4-6.7,5.9-11.9,12.6-11.9 c6.7,0,12.2,5.2,12.6,11.9L94.9,43L88.6,40z M99.3,54.7H60.6c-2.3,0-4.2,1.9-4.2,4.2s1.9,4.2,4.2,4.2h13.9l-0.2,0.8 c-0.1,0.5-0.2,1-0.2,1.5c0,1,0.3,2,0.8,2.9l0.5,0.9H29.6l0.5-0.9c0.5-0.9,0.8-1.9,0.8-2.9c0-0.5-0.1-1-0.2-1.5l-0.2-0.8h14 c2.3,0,4.2-1.9,4.2-4.2s-1.9-4.2-4.2-4.2H5.7c-2.3,0-4.2,1.9-4.2,4.2s1.9,4.2,4.2,4.2h14l-0.2,0.8c-0.1,0.5-0.2,1-0.2,1.5 c0,3.2,2.6,5.8,5.8,5.8h24.8l-34.4,30.6c-0.3,0.3-0.4,0.7-0.3,1.1c0.1,0.4,0.5,0.6,0.9,0.6h72.6c0.4,0,0.8-0.3,0.9-0.6 c0.1-0.4,0-0.8-0.3-1.1L55.1,71.2h24.8c3.2,0,5.8-2.6,5.8-5.8c0-0.5-0.1-1-0.2-1.5l-0.2-0.8h13.9c2.3,0,4.2-1.9,4.2-4.2 C103.5,56.6,101.6,54.7,99.3,54.7z M25.1,69.2c-2.1,0-3.9-1.7-3.9-3.9c0-2.1,1.7-3.9,3.9-3.9s3.9,1.7,3.9,3.9 C28.9,67.5,27.2,69.2,25.1,69.2z M28.9,61c-1-1-2.4-1.5-3.8-1.5S22.3,60,21.3,61l-0.2,0.2H5.7c-1.2,0-2.2-1-2.2-2.2s1-2.2,2.2-2.2 h38.8c1.2,0,2.2,1,2.2,2.2s-1,2.2-2.2,2.2H29.1L28.9,61z M51.4,72.5v29h-5V76.9L51.4,72.5z M39.3,83.3l5-4.5v22.7h-5V83.3z M37.2,101.5h-5V89.6l5-4.5V101.5z M30.1,91.4v10.1H18.8L30.1,91.4z M65.7,101.5h-5V78.8l5,4.5V101.5z M67.7,85.1l5,4.5v11.9h-5 V85.1z M74.8,101.5V91.4l11.4,10.1H74.8z M58.6,76.9v24.6h-5V72.4L58.6,76.9z M79.9,69.2c-2.1,0-3.9-1.7-3.9-3.9 c0-2.1,1.7-3.9,3.9-3.9c2.1,0,3.9,1.7,3.9,3.9C83.8,67.5,82.1,69.2,79.9,69.2z M99.3,61.1H84l-0.2-0.2c-1.1-0.9-2.4-1.5-3.8-1.5 s-2.8,0.5-3.8,1.5L76,61.1H60.6c-1.2,0-2.2-1-2.2-2.2s1-2.2,2.2-2.2h38.7c1.2,0,2.2,1,2.2,2.2S100.5,61.1,99.3,61.1z M2.5,53.5 c0.5,0,1-0.4,1-1v-1.7c0-1.6,1-3,2.4-3.5l10.3-3.9c1.6-0.6,2.7-2.2,2.7-3.9v-4.4l1.1,1c1.4,1.3,3.2,2,5.1,2s3.7-0.7,5.1-2l1.5-1.3 v4.7c0,1.8,1.1,3.3,2.7,3.9l9.9,3.9c1.5,0.6,2.4,2,2.4,3.5v1.7c0,0.5,0.4,1,1,1c0.5,0,1-0.4,1-1v-1.7c0-2.4-1.4-4.5-3.7-5.4l-10-3.9 c-0.9-0.3-1.4-1.2-1.4-2.1v-6.7l0.1-0.2c1.1-1.3,1.8-2.8,2.1-4.5l0.2-1.1c0.1-0.4,0.2-0.8,0.2-1.2l0.1-0.2l0.1-0.1 c1-1.3,1.6-2.9,1.6-4.6c0-0.6-0.2-1.2-0.6-1.6L37.2,19v-0.3c0-0.8,0.1-1.6,0.1-2.5v-4c0-4.7-3.8-8.5-8.5-8.5h-7.6 c-4.7,0-8.5,3.8-8.5,8.5v4.4c0,0.7,0,1.4,0.1,2.2v0.3l-0.2,0.2c-0.4,0.4-0.6,1-0.6,1.6c0,1.7,0.6,3.4,1.6,4.7l0.1,0.2l0.5,2.3 c0.4,1.8,1.2,3.5,2.5,4.9l0.2,0.2v6.2c0,0.9-0.6,1.8-1.4,2.1L5.2,45.4c-2.2,0.8-3.7,3-3.7,5.4v1.7C1.5,53,1.9,53.5,2.5,53.5z M16.3,27.7l-0.2-1.1c-0.7-3.1-1.2-5.8-1.3-9.4v-0.6l0.6-0.1c9-1,14.3-5.3,14.5-5.4c0.4-0.3,0.5-1,0.1-1.4c-0.3-0.4-1-0.5-1.4-0.1 c0,0-4.8,3.9-13.1,5l-0.7,0.1v-2.3c0-3.6,2.9-6.5,6.5-6.5h7.6c3.6,0,6.5,2.9,6.5,6.5v4c0,4.4-0.6,7.3-1.2,10.4L34,27.7 c-0.4,1.8-1.3,3.4-2.6,4.7L29,34.6c-1,0.9-2.4,1.5-3.8,1.5s-2.7-0.5-3.8-1.5L19,32.4C17.5,31.1,16.6,29.5,16.3,27.7z"></path> 




</svg> 