<?xml version="1.0" encoding="UTF-8"?> <!-- Generator: Adobe Illustrator 24.1.2, SVG Export Plug-In . SVG Version: 6.00 Build 0) --> <svg xmlns="http://www.w3.org/2000/svg" xmlns:xlink="http://www.w3.org/1999/xlink" version="1.1" id="sp_3" x="0px" y="0px" width="105px" height="105px" viewBox="0 0 105 105" style="enable-background:new 0 0 105 105;" xml:space="preserve"> 

<linearGradient id="SVGID_3_" gradientUnits="userSpaceOnUse" x1="52.55" y1="106.5" x2="52.55" y2="2.5" gradientTransform="matrix(1 0 0 -1 0 107)"> 

<stop offset="0" stop-color="#00FBFF"></stop> 
<stop offset="1" stop-color="#00B1B4"></stop> 

</linearGradient> <path class="st0" d="M94.9,61.9c0-14.2-7-26.7-17.6-34.5l2.3-3.3c4.1,3,7.7,6.6,10.7,10.7c0.2,0.3,0.6,0.5,0.9,0.5h0.1 c0.4,0,0.8-0.3,0.9-0.6c0.9-1.7,1.4-3.6,1.4-5.6c0-6.2-3.1-12.1-8.2-15.6c-3.2-2.2-6.9-3.4-10.8-3.4c-2.3,0-4.6,0.4-6.7,1.2 c-2.3,0.9-3.8,2.3-4.7,3.3c-0.3,0.3-0.4,0.7-0.2,1.1c0.1,0.4,0.4,0.7,0.8,0.8c4.9,1.3,9.6,3.5,13.9,6.3l-2.3,3.3 c-6.3-4.1-13.8-6.5-21.9-6.8v-1.6c2.5-0.5,4.4-2.8,4.4-5.5c0-3.1-2.5-5.6-5.6-5.6s-5.6,2.5-5.6,5.6c0,2.7,1.9,4.9,4.4,5.5v1.6 c-8.1,0.2-15.6,2.7-21.9,6.8L27,22.8C31.3,20,36,17.9,41,16.5c0.4-0.1,0.7-0.4,0.8-0.8s0-0.8-0.2-1.1c-0.9-1-2.5-2.4-4.7-3.3 c-2.2-0.8-4.4-1.2-6.7-1.2c-3.9,0-7.6,1.2-10.8,3.4C14,17.1,11,22.9,11,29.2c0,1.9,0.5,3.9,1.4,5.6c0.2,0.4,0.5,0.6,0.9,0.6h0.1 c0.4,0,0.7-0.2,0.9-0.5c3-4.1,6.6-7.8,10.7-10.7l2.3,3.4C16.8,35.2,9.8,47.8,9.8,61.9c0,12.6,5.5,24,14.3,31.8l-2.8,5 c-0.7,1.2-0.7,2.7,0,3.9c0.7,1.2,2,1.9,3.4,1.9l0,0H25c1.4,0,2.7-0.8,3.4-2l2.3-4c6.4,3.8,13.8,6,21.8,6c7.9,0,15.3-2.2,21.7-6 l2.3,4c0.7,1.2,2,1.9,3.4,1.9h0.3l0,0c1.4,0,2.7-0.7,3.4-2c0.7-1.2,0.7-2.7,0-3.9l-2.8-4.9C89.4,85.9,94.9,74.6,94.9,61.9z M68.9,13.6c1.9-0.7,3.9-1.1,5.9-1.1c3.4,0,6.7,1,9.5,3c4.5,3.1,7.2,8.2,7.2,13.7c0,0.9-0.1,1.8-0.4,2.7c-6.3-8-14.9-13.9-24.6-17 C67.1,14.4,67.9,13.9,68.9,13.6z M13.7,31.9c-0.3-0.9-0.4-1.8-0.4-2.7c0-5.5,2.7-10.6,7.2-13.7c2.8-1.9,6.1-3,9.5-3 c2,0,4,0.4,5.9,1.1c1,0.4,1.8,0.8,2.4,1.3C28.6,17.9,20,23.9,13.7,31.9z M49.1,12.3c0-1.8,1.5-3.3,3.3-3.3s3.3,1.5,3.3,3.3 s-1.5,3.3-3.3,3.3S49.1,14.1,49.1,12.3z M26.3,101.4c-0.3,0.5-0.8,0.8-1.4,0.8h-0.3l0,0c-0.6,0-1.1-0.3-1.4-0.8s-0.3-1.1,0-1.6 l2.6-4.6c0.9,0.7,1.8,1.4,2.8,2L26.3,101.4z M81.4,99.8c0.3,0.5,0.3,1.1,0,1.6s-0.8,0.8-1.4,0.8l0,0h-0.3c-0.6,0-1.1-0.3-1.4-0.8 l-2.3-4.1c1-0.6,1.9-1.3,2.8-2L81.4,99.8z M52.5,102.2c-22.2,0-40.2-18.1-40.2-40.2c0-22.2,18.1-40.2,40.2-40.2 c22.2,0,40.2,18.1,40.2,40.2C92.6,84.1,74.6,102.2,52.5,102.2z M77.9,36.5C71.1,29.7,62,26,52.5,26c-19.8,0-35.9,16.1-35.9,35.9 c-0.1,9.6,3.7,18.6,10.5,25.4s15.8,10.5,25.4,10.5c19.8,0,35.9-16.1,35.9-35.9C88.4,52.3,84.6,43.3,77.9,36.5z M52.5,95.5 c-9,0-17.4-3.5-23.8-9.8c-6.3-6.3-9.8-14.8-9.8-23.8c0-18.5,15.1-33.6,33.6-33.6c9,0,17.4,3.5,23.8,9.8c6.3,6.4,9.8,14.9,9.8,23.8 C86.1,80.5,70.9,95.5,52.5,95.5z M52.5,60.4c-0.9,0-1.6,0.7-1.6,1.6c0,0.9,0.7,1.6,1.6,1.6c0.9,0,1.6-0.7,1.6-1.6 C54,61.1,53.2,60.4,52.5,60.4z M52.5,87.2c-0.8,0-1.5,0.3-2,0.8s-0.8,1.3-0.8,2c0,0.8,0.3,1.5,0.8,2s1.3,0.8,2,0.8 c1.6,0,2.9-1.3,2.9-2.9C55.2,88.5,54,87.2,52.5,87.2z M52.5,36.7c1.6,0,2.9-1.3,2.9-2.9s-1.3-2.9-2.9-2.9c-1.6,0-2.9,1.3-2.9,2.9 S50.8,36.7,52.5,36.7z M27.1,61.9c0-1.6-1.3-2.9-2.9-2.9c-0.8,0-1.5,0.3-2,0.8s-0.8,1.3-0.8,2c0,1.6,1.3,2.9,2.9,2.9 C25.8,64.8,27.1,63.5,27.1,61.9z M80.6,59c-1.6,0-2.9,1.3-2.9,2.9c0,1.6,1.3,2.9,2.9,2.9c1.6,0,2.9-1.3,2.9-2.9S82.1,59,80.6,59z M39.5,84.4c-0.3-0.2-0.7-0.3-1.1-0.3c-0.8,0-1.5,0.4-1.9,1.1c-0.3,0.5-0.4,1.1-0.2,1.6c0.1,0.6,0.5,1,1,1.3 c0.3,0.2,0.7,0.3,1.1,0.3c0.8,0,1.5-0.4,1.9-1.1C40.8,86.3,40.5,85,39.5,84.4z M65.4,39.4c0.3,0.2,0.7,0.3,1.1,0.3 c0.8,0,1.5-0.4,1.9-1.1c0.3-0.5,0.4-1.1,0.2-1.6c-0.1-0.6-0.5-1-1-1.3c-0.3-0.2-0.7-0.3-1.1-0.3c-0.8,0-1.5,0.4-1.9,1.1 c-0.3,0.5-0.4,1.1-0.2,1.6C64.6,38.7,64.9,39.1,65.4,39.4z M28,73.8c-0.4,0-0.7,0.1-1.1,0.3c-0.5,0.3-0.9,0.8-1,1.3 c-0.1,0.6-0.1,1.1,0.2,1.6c0.4,0.7,1.1,1.1,1.9,1.1c0.4,0,0.7-0.1,1.1-0.3c1-0.6,1.4-1.9,0.8-2.9C29.5,74.3,28.8,73.8,28,73.8z M76.8,50c0.4,0,0.8-0.1,1.1-0.3c0.5-0.3,0.9-0.8,1-1.3c0.1-0.6,0.1-1.1-0.2-1.6c-0.4-0.7-1.1-1.1-1.9-1.1c-0.4,0-0.8,0.1-1.1,0.3 c-0.5,0.3-0.9,0.8-1,1.3c-0.1,0.6-0.1,1.1,0.2,1.6C75.2,49.6,76.1,50,76.8,50z M29.1,46c-0.3-0.2-0.7-0.3-1.1-0.3 c-0.8,0-1.5,0.4-1.9,1.1c-0.3,0.5-0.4,1.1-0.2,1.6c0.1,0.6,0.5,1,1,1.3c0.3,0.2,0.7,0.3,1.1,0.3c0.8,0,1.5-0.4,1.9-1.1 c0.3-0.5,0.4-1.1,0.2-1.6C29.9,46.7,29.6,46.3,29.1,46z M77.9,74.1c-0.3-0.2-0.7-0.3-1.1-0.3c-0.8,0-1.5,0.4-1.9,1.1 c-0.3,0.5-0.4,1.1-0.2,1.6c0.1,0.6,0.5,1,1,1.3c0.3,0.2,0.7,0.3,1.1,0.3c0.8,0,1.5-0.4,1.9-1.1c0.3-0.5,0.4-1.1,0.2-1.6 C78.8,74.9,78.4,74.4,77.9,74.1z M38.3,39.7c0.4,0,0.7-0.1,1.1-0.3c1-0.6,1.4-1.9,0.8-2.9c-0.4-0.7-1.1-1.1-1.9-1.1 c-0.4,0-0.7,0.1-1.1,0.3c-1,0.6-1.4,1.9-0.8,2.9C36.8,39.3,37.5,39.7,38.3,39.7z M66.4,84.1c-0.4,0-0.7,0.1-1.1,0.3 c-0.5,0.3-0.9,0.8-1,1.3c-0.1,0.6-0.1,1.1,0.2,1.6c0.4,0.7,1.1,1.1,1.9,1.1c0.4,0,0.7-0.1,1.1-0.3c0.5-0.3,0.9-0.8,1-1.3 c0.1-0.6,0.1-1.1-0.2-1.6C67.9,84.6,67.2,84.1,66.4,84.1z M61,51.8l-5.8,5.8c-0.8-0.5-1.7-0.8-2.7-0.8s-1.9,0.3-2.7,0.8L36.6,44.5 c-0.5-0.5-1.2-0.5-1.6,0c-0.5,0.5-0.5,1.2,0,1.6l13,13.1c-0.5,0.8-0.8,1.7-0.8,2.7c0,2.4,1.7,4.5,4,5v17.3c0,0.6,0.5,1.2,1.2,1.2 c0.6,0,1.2-0.5,1.2-1.2V66.9c2.3-0.5,4-2.6,4-5c0-1-0.3-1.9-0.8-2.7l5.8-5.8c0.5-0.5,0.5-1.2,0-1.6C62.1,51.3,61.3,51.3,61,51.8z M52.5,64.8c-1.6,0-2.8-1.3-2.8-2.8c0-1.6,1.3-2.8,2.8-2.8c1.6,0,2.8,1.3,2.8,2.8C55.2,63.5,54,64.8,52.5,64.8z M54,12.3 c0-0.9-0.7-1.6-1.6-1.6c-0.9,0-1.6,0.7-1.6,1.6c0,0.9,0.7,1.6,1.6,1.6C53.2,13.9,54,13.2,54,12.3z M31.3,7.2L33,2.6 c0.2-0.6,0.9-0.9,1.5-0.7c0.6,0.2,0.9,0.9,0.7,1.5L33.7,8c-0.2,0.5-0.6,0.8-1.1,0.8c-0.1,0-0.3,0-0.4-0.1 C31.4,8.4,31.1,7.8,31.3,7.2z M9.1,24.8C9.1,24.8,9,24.8,9.1,24.8l-4.9-0.1c-0.6,0-1.1-0.6-1.1-1.2s0.6-1.1,1.2-1.1l4.9,0.1 c0.6,0,1.1,0.6,1.1,1.2C10.2,24.3,9.7,24.8,9.1,24.8z M4.4,16.2c0.2-0.6,0.9-0.9,1.5-0.7l4.6,1.6c0.6,0.2,0.9,0.9,0.7,1.5 c-0.2,0.5-0.6,0.8-1.1,0.8c-0.1,0-0.3,0-0.4-0.1l-4.6-1.6C4.5,17.4,4.1,16.8,4.4,16.2z M7.9,9.7C8.3,9.2,9,9.1,9.5,9.5l3.9,3 c0.5,0.4,0.6,1.1,0.2,1.6c-0.2,0.3-0.6,0.5-0.9,0.5c-0.2,0-0.5-0.1-0.7-0.2l-3.9-3C7.6,10.9,7.5,10.2,7.9,9.7z M12.9,6.2 c-0.4-0.5-0.2-1.3,0.3-1.6c0.5-0.4,1.3-0.2,1.6,0.3l2.8,4c0.4,0.5,0.2,1.3-0.3,1.6c-0.2,0.1-0.4,0.2-0.7,0.2c-0.4,0-0.7-0.2-1-0.5 L12.9,6.2z M19.1,2.9c-0.2-0.6,0.2-1.3,0.8-1.4c0.6-0.2,1.3,0.2,1.4,0.8L22.7,7c0.2,0.6-0.2,1.3-0.8,1.4c-0.1,0-0.2,0-0.3,0 c-0.5,0-1-0.3-1.1-0.8L19.1,2.9z M25.9,6.5L26,1.6c0-0.6,0.6-1.1,1.2-1.1s1.1,0.6,1.1,1.2l-0.1,4.9c0,0.6-0.5,1.1-1.2,1.1l0,0 C26.4,7.7,25.9,7.2,25.9,6.5z M69.8,3.3c-0.2-0.6,0.1-1.3,0.7-1.5c0.6-0.2,1.3,0.1,1.5,0.7l1.6,4.6c0.2,0.6-0.1,1.3-0.7,1.5 c-0.1,0-0.3,0.1-0.4,0.1c-0.5,0-0.9-0.3-1.1-0.8L69.8,3.3z M101.9,23.4c0,0.6-0.5,1.2-1.1,1.2l-4.9,0.1l0,0c-0.6,0-1.1-0.5-1.2-1.1 c0-0.6,0.5-1.2,1.1-1.2l4.9-0.1C101.4,22.3,101.9,22.8,101.9,23.4z M94.6,17.1l4.6-1.6c0.6-0.2,1.3,0.1,1.5,0.7 c0.2,0.6-0.1,1.3-0.7,1.5l-4.6,1.6c-0.1,0-0.3,0.1-0.4,0.1c-0.5,0-0.9-0.3-1.1-0.8C93.6,18,93.9,17.3,94.6,17.1z M91.6,12.5l3.9-3 c0.5-0.4,1.2-0.3,1.6,0.2c0.4,0.5,0.3,1.2-0.2,1.6l-3.9,3c-0.2,0.2-0.5,0.2-0.7,0.2c-0.3,0-0.7-0.2-0.9-0.5 C90.9,13.6,91.1,12.9,91.6,12.5z M87.4,9l2.8-4c0.4-0.5,1.1-0.7,1.6-0.3c0.5,0.4,0.7,1.1,0.3,1.6l-2.8,4c-0.2,0.3-0.6,0.5-1,0.5 c-0.2,0-0.5-0.1-0.7-0.2C87.1,10.2,86.9,9.5,87.4,9z M82.2,6.9l1.4-4.7c0.2-0.6,0.8-1,1.4-0.8c0.6,0.2,1,0.8,0.8,1.4l-1.4,4.7 c-0.1,0.5-0.6,0.8-1.1,0.8c-0.1,0-0.2,0-0.3,0C82.4,8.2,82.1,7.6,82.2,6.9z M76.8,6.6l-0.1-4.9c0-0.6,0.5-1.2,1.1-1.2 c0.6,0,1.2,0.5,1.2,1.1l0.1,4.9c0,0.6-0.5,1.2-1.1,1.2l0,0C77.2,7.7,76.8,7.2,76.8,6.6z"></path> </svg> 