<svg xmlns="http://www.w3.org/2000/svg" xmlns:xlink="http://www.w3.org/1999/xlink" width="68.96" height="68.96" viewBox="0 0 68.96 68.96">
  <defs>
    <filter id="Ellipse_2_copy" x="0" y="0" width="68.96" height="68.96" filterUnits="userSpaceOnUse">
      <feOffset dy="1" input="SourceAlpha"/>
      <feGaussianBlur stdDeviation="1" result="blur"/>
      <feFlood flood-opacity="0.2"/>
      <feComposite operator="in" in2="blur"/>
      <feComposite in="SourceGraphic"/>
    </filter>
  </defs>
  <g id="Group_26" data-name="Group 26" transform="translate(-1527 -7479)">
    <g transform="matrix(1, 0, 0, 1, 1527, 7479)" filter="url(#Ellipse_2_copy)">
      <circle id="Ellipse_2_copy-2" data-name="Ellipse 2 copy" cx="31.48" cy="31.48" r="31.48" transform="translate(3 2)" fill="#fff"/>
    </g>
    <g id="Group_144" data-name="Group 144" transform="translate(1343.404 7416.521)">
      <path id="Path_218" data-name="Path 218" d="M468.507,316.931c.131-.192.253-.39.4-.573a4.987,4.987,0,0,1,2.16-1.6,5.78,5.78,0,0,1,1.992-.394,7.617,7.617,0,0,1,2.842.411,4.334,4.334,0,0,1,2.3,1.92,6.675,6.675,0,0,1,.81,2.4,13.135,13.135,0,0,1,.165,1.624c.034,1.1.036,2.2.038,3.3.005,2.159,0,4.318,0,6.477v.239h-4.8c-.214,0-.215,0-.215-.217q0-4.159,0-8.319a5.392,5.392,0,0,0-.358-2.13,2.067,2.067,0,0,0-1.809-1.311,3.683,3.683,0,0,0-1.44.122,2.344,2.344,0,0,0-1.6,1.577,4.9,4.9,0,0,0-.294,1.633q-.023,4.2-.032,8.4c0,.28.026.246-.246.246-1.512,0-3.025,0-4.537,0-.157,0-.2-.041-.2-.2q.006-7.792,0-15.585c0-.215,0-.22.223-.22h4.34c.221,0,.223,0,.224.218q0,.9,0,1.792v.174Z" transform="translate(-248.622 -222.326)" fill="#0f3447"/>
      <path id="Path_219" data-name="Path 219" d="M218.609,341.769v-.212q0-7.784,0-15.569c0-.221,0-.221.227-.221h4.521c.237,0,.238,0,.238.238q0,7.768,0,15.536c0,.228,0,.228-.22.228h-4.766Z" transform="translate(-11.617 -233.353)" fill="#0f3447"/>
      <path id="Path_220" data-name="Path 220" d="M206.6,87.377a2.9,2.9,0,0,1,5.8,0,2.9,2.9,0,1,1-5.8,0Z" transform="translate(0 0)" fill="#0f3447"/>
    </g>
  </g>
</svg>
