<svg xmlns="http://www.w3.org/2000/svg" xmlns:xlink="http://www.w3.org/1999/xlink" width="68.96" height="68.96" viewBox="0 0 68.96 68.96">
  <defs>
    <filter id="Ellipse_2_copy_2" x="0" y="0" width="68.96" height="68.96" filterUnits="userSpaceOnUse">
      <feOffset dy="1" input="SourceAlpha"/>
      <feGaussianBlur stdDeviation="1" result="blur"/>
      <feFlood flood-opacity="0.2"/>
      <feComposite operator="in" in2="blur"/>
      <feComposite in="SourceGraphic"/>
    </filter>
  </defs>
  <g id="Group_27" data-name="Group 27" transform="translate(-1603 -7479)">
    <g transform="matrix(1, 0, 0, 1, 1603, 7479)" filter="url(#Ellipse_2_copy_2)">
      <circle id="Ellipse_2_copy_2-2" data-name="Ellipse 2 copy 2" cx="31.48" cy="31.48" r="31.48" transform="translate(3 2)" fill="#fff"/>
    </g>
    <g id="Group_143" data-name="Group 143" transform="translate(1869.839 7722.978)">
      <path id="Path_213" data-name="Path 213" d="M-214.688-224.978a2.606,2.606,0,0,1,1.807,2.686c.193,3.263.311,6.53.408,9.8a3.557,3.557,0,0,1-.388,1.508c-.247.541-.625.288-.955.012a23.95,23.95,0,0,1-4.838-5.443,32.922,32.922,0,0,1-1.887-3.383,2.5,2.5,0,0,1,.829-3.371,8.941,8.941,0,0,1,3.745-1.675,2.606,2.606,0,0,0,.355-.132Z" transform="translate(-19.921)" fill="#0f3447"/>
      <path id="Path_214" data-name="Path 214" d="M-243.839-121.769a30.033,30.033,0,0,1,.829-3.423,1.943,1.943,0,0,1,2.861-1.229,17.646,17.646,0,0,1,5.627,3.7,1.109,1.109,0,0,1-.32,1.964,31.027,31.027,0,0,1-3.213,1.325c-.987.354-2,.643-3.016.906-1.591.412-2.382-.186-2.508-1.83-.035-.458-.094-.915-.142-1.372Z" transform="translate(0 -85.29)" fill="#0f3447"/>
      <path id="Path_215" data-name="Path 215" d="M-145.479-151.5c-1.857,0-2.411-.848-1.679-2.212a9.4,9.4,0,0,1,1.335-1.781c1.069-1.189,2.16-2.36,3.288-3.493.592-.594,1.044-.577,1.657,0,.844.795,1.659,1.622,2.454,2.466a3.433,3.433,0,0,1,.583.947,1.477,1.477,0,0,1-.918,2.3A28.541,28.541,0,0,1-145.479-151.5Z" transform="translate(-83.606 -56.867)" fill="#0f3447"/>
      <path id="Path_216" data-name="Path 216" d="M-202.484-67.591c-.088,1.73-.144,3-.22,4.273-.065,1.081-.627,1.654-1.656,1.466a37.21,37.21,0,0,1-3.8-.99,2.4,2.4,0,0,1-.943-.583c-.831-.808-.891-1.314-.205-2.14,1.094-1.316,2.093-2.713,3.212-4.006a5.939,5.939,0,0,1,1.746-1.346,1.041,1.041,0,0,1,1.615.776A22.029,22.029,0,0,1-202.484-67.591Z" transform="translate(-29.548 -133.517)" fill="#0f3447"/>
      <path id="Path_217" data-name="Path 217" d="M-138.379-82.322a4.817,4.817,0,0,1,.858.118c1.67.52,3.339,1.043,4.993,1.613a3.089,3.089,0,0,1,1.029.686,1.339,1.339,0,0,1,.4,1.5,5.78,5.78,0,0,1-4.309,3.928.761.761,0,0,1-.585-.189,4.575,4.575,0,0,1-.875-.975c-.813-1.35-1.6-2.715-2.357-4.1a3.845,3.845,0,0,1-.36-1.253C-139.725-81.894-139.336-82.317-138.379-82.322Z" transform="translate(-90.421 -123.763)" fill="#0f3447"/>
    </g>
  </g>
</svg>
