<?xml version="1.0" encoding="UTF-8"?> <!-- Generator: Adobe Illustrator 24.1.2, SVG Export Plug-In . SVG Version: 6.00 Build 0) --> <svg xmlns="http://www.w3.org/2000/svg" xmlns:xlink="http://www.w3.org/1999/xlink" version="1.1" id="sp_2" x="0px" y="0px" width="126px" height="105px" viewBox="0 0 126 105" style="enable-background:new 0 0 126 105;" xml:space="preserve">

<linearGradient id="SVGID_2_" gradientUnits="userSpaceOnUse" x1="62.9" y1="105.5" x2="62.9" y2="3.5" gradientTransform="matrix(1 0 0 -1 0 107)"> 

<stop offset="0" stop-color="#00FBFF"></stop> 
<stop offset="1" stop-color="#00B1B4"></stop> 

</linearGradient> 
<path class="st0" d="M37.6,66.3l-0.4-0.4c-0.5-0.5-0.5-1.4,0-1.9s1.4-0.5,1.9,0l0.4,0.4c0.5,0.5,0.5,1.4,0,1.9 c-0.3,0.3-0.6,0.4-1,0.4C38.2,66.7,37.9,66.5,37.6,66.3z M46.1,68.6c-0.5-0.5-1.4-0.5-1.9,0s-0.5,1.4,0,1.9l0.5,0.5 c0.3,0.3,0.6,0.4,1,0.4c0.3,0,0.7-0.1,1-0.4c0.5-0.5,0.5-1.4,0-1.9L46.1,68.6z M52.1,77.5c0.3,0,0.7-0.1,1-0.4 c0.5-0.5,0.5-1.4,0-1.9l-0.8-0.7c-0.5-0.5-1.4-0.5-1.9,0s-0.5,1.4,0,1.9l0.8,0.8C51.4,77.4,51.8,77.5,52.1,77.5z M57.3,81.8 c-0.5-0.5-1.4-0.5-1.9,0s-0.5,1.4,0,1.9l0.6,0.6c0.3,0.3,0.6,0.4,1,0.4c0.3,0,0.7-0.1,1-0.4c0.5-0.5,0.5-1.4,0-1.9L57.3,81.8z M125.6,34.8l-8.2,8.2l0,0l-4.5,4.5c-0.3,0.3-0.6,0.4-1,0.4s-0.7-0.1-1-0.4l-1.7-1.7L90.8,64.3c0.8,1,1.3,2.2,1.3,3.5 c0,1.4-0.6,2.8-1.6,3.8l-0.7,0.7c-0.8,0.8-1.7,1.3-2.8,1.5c0.9,2,0.6,4.4-1.1,6.1l-0.5,0.6c-1,1-2.4,1.6-3.8,1.6 c-1.1,0-2.1-0.3-3-0.9c-0.2,0.9-0.7,1.8-1.4,2.5l-0.7,0.7c-1,1-2.4,1.6-3.8,1.6l0,0c-0.8,0-1.6-0.2-2.3-0.5c-0.2,1-0.7,2-1.5,2.8 l-0.6,0.6c-1,1-2.4,1.6-3.8,1.6s-2.8-0.5-3.8-1.6l-1-1l-0.3,0.3c-1,1-2.4,1.6-3.8,1.6c-1.4,0-2.8-0.6-3.8-1.6L51.6,88 c-0.9-0.9-1.4-2.1-1.5-3.3c-0.4,0.1-0.9,0.2-1.3,0.2c-1.4,0-2.8-0.5-3.8-1.6l-0.5-0.5c-1.1-1.1-1.6-2.7-1.5-4.2c-0.1,0-0.2,0-0.3,0 c-1.4,0-2.8-0.6-3.8-1.6l-0.4-0.4c-1.4-1.4-1.8-3.3-1.4-5.1c-1.3-0.1-2.4-0.6-3.3-1.5l-0.1-0.1c-2.1-2.1-2.1-5.5,0-7.6L34,62 L17.5,45.5l-2.3,2.3c-0.3,0.3-0.6,0.4-1,0.4c-0.3,0-0.7-0.1-1-0.4l-4.5-4.5l0,0l-8.5-8.5c-0.5-0.5-0.5-1.4,0-1.9s1.4-0.5,1.9,0 l7.7,7.6L23.3,27l13.5-13.5L29.3,6c-0.5-0.5-0.5-1.4,0-1.9s1.4-0.5,1.9,0l8.5,8.5l4.5,4.5c0.3,0.3,0.4,0.6,0.4,1s-0.1,0.7-0.4,1 l-2.8,2.8l3.8,3.8h6.7l1.6-1.6c0.2-0.3,0.6-0.4,1-0.4H81l3-3l-2.1-2.2c-0.3-0.3-0.4-0.6-0.4-1s0.1-0.7,0.4-1l4.5-4.5l0,0l8.2-8.2 c0.5-0.5,1.4-0.5,1.9,0s0.5,1.4,0,1.9L89.2,13l27.2,27.2l7.3-7.3c0.5-0.5,1.4-0.5,1.9,0S126.1,34.3,125.6,34.8z M41.2,18l-2.5-2.5 l-0.1,0.1L11.7,42.4l2.5,2.5L41.2,18z M35.5,68c1,1,2.8,1,3.8,0l0.1-0.1l1.1-1.1c0.7-0.7,0.7-2,0-2.7L39.4,63 c-0.4-0.4-0.8-0.6-1.4-0.6c-0.5,0-1,0.2-1.4,0.6l-1.2,1.2C34.4,65.2,34.4,66.9,35.5,68C35.5,67.9,35.5,68,35.5,68z M44.4,75l3.3-3.3 c0.4-0.4,0.6-0.8,0.6-1.4c0-0.5-0.2-1-0.6-1.4l0,0l-1.4-1.4c-0.4-0.4-0.9-0.6-1.4-0.6s-1,0.2-1.4,0.6l-1.7,1.7l-0.6,0.6l0,0l-1,1 c-1,1-1,2.7,0,3.8l0.4,0.4C41.7,76,43.4,76,44.4,75z M50.7,81.2l3.5-3.5c0.4-0.4,0.6-0.8,0.6-1.4c0-0.5-0.2-1-0.6-1.4l-1.6-1.6 c-0.4-0.4-0.8-0.6-1.4-0.6c-0.5,0-1,0.2-1.4,0.6l-0.2,0.2l0,0l-3.3,3.3c-1,1-1,2.7,0,3.8l0.5,0.5C47.9,82.3,49.6,82.3,50.7,81.2z M57.5,86.1l1.3-1.3c0.7-0.7,0.7-2,0-2.7l-1.3-1.3c-0.4-0.4-0.9-0.6-1.4-0.6s-1,0.2-1.4,0.6l-0.1,0.1l-1.2,1.2c-1,1-1,2.7,0,3.8 l0.2,0.2C54.7,87.1,56.5,87.1,57.5,86.1z M89.4,67.8c0-0.7-0.3-1.4-0.8-1.9L88,65.2l0,0l0,0L57.7,35l-3.2,3.2 C52.7,40,50.3,41,47.8,41s-4.9-1-6.7-2.8c-0.5-0.5-0.5-1.4,0-1.9l8-8h-4.5c-0.4,0-0.7-0.1-1-0.4l-4.2-4.2l-20,19.9L36,60.2 c0.6-0.3,1.3-0.5,2-0.5c1.2,0,2.4,0.5,3.3,1.4l1.1,1.1l0,0c0.7,0.7,1.1,1.5,1.2,2.3c1.6-0.4,3.3-0.1,4.5,1.2l1.4,1.4 c0.8,0.8,1.3,1.9,1.3,3.1c0.1,0,0.2,0,0.3,0c1.2,0,2.4,0.5,3.3,1.4l1.6,1.6l0,0c0.9,0.9,1.4,2,1.4,3.3c0,0.5-0.1,1-0.2,1.4 c0.8,0.2,1.6,0.6,2.2,1.2l1.3,1.3c1.5,1.5,1.7,3.7,0.8,5.4l1.1,1.1c1,1,2.7,1,3.8,0l0.6-0.6c1-1,1-2.7,0-3.8L55.7,71.2L50.5,66 c-0.5-0.5-0.5-1.4,0-1.9s1.4-0.5,1.9,0l18.3,18.3c0.5,0.5,1.2,0.8,1.9,0.8c0.7,0,1.4-0.3,1.9-0.8l0.7-0.7c0.5-0.5,0.8-1.2,0.8-1.9 c0-0.7-0.3-1.4-0.8-1.9L56.9,59.6l0,0l-2.2-2.2c-0.5-0.5-0.5-1.4,0-1.9s1.4-0.5,1.9,0L77.1,76l0,0l2.5,2.5c1,1,2.7,1,3.8,0l0.6-0.6 c1-1,1-2.7,0-3.8L65.8,55.9l0,0L59,49.1c-0.5-0.5-0.5-1.4,0-1.9s1.4-0.5,1.9,0l23.2,23.2c1,1,2.7,1,3.8,0l0.7-0.7 C89.1,69.2,89.4,68.5,89.4,67.8z M62.8,36.2l1.3-1.3h-2.5L62.8,36.2z M107.3,44L85.8,22.5l-3.4,3.4c-0.3,0.3-0.6,0.4-1,0.4H54.9 L44.1,37.1c1.1,0.7,2.4,1.1,3.7,1.1c1.8,0,3.5-0.7,4.8-2l3.6-3.6c0.3-0.3,0.6-0.4,1-0.4h14.2c0.7,0,1.4,0.6,1.4,1.4 c0,0.7-0.6,1.4-1.4,1.4h-2.2c3,6.6,9.5,10.9,16.9,10.9c0.7,0,1.4,0.6,1.4,1.4c0,0.7-0.6,1.4-1.4,1.4c-8.4,0-15.9-4.9-19.3-12.4l-2,2 L89,62.5L107.3,44z M114.5,42.1l-1-1L87.3,14.9l-2.6,2.6l27.2,27.2L114.5,42.1z M38.9,94.2L38.9,94.2c-0.8-0.5-1.6-0.2-1.9,0.4 c-0.4,0.7-0.1,1.5,0.5,1.8h0.1c0.2,0.1,0.5,0.2,0.7,0.2c0.5,0,0.9-0.2,1.2-0.7C39.7,95.4,39.5,94.6,38.9,94.2z M91.3,91.9 c-0.7,0.4-0.9,1.2-0.5,1.8c0.2,0.4,0.7,0.7,1.2,0.7c0.2,0,0.4-0.1,0.6-0.2l0.1-0.1c0.6-0.4,0.8-1.2,0.5-1.8 C92.8,91.7,91.9,91.5,91.3,91.9z M83.3,96.5c-0.7,0.3-1,1.1-0.7,1.8c0.2,0.5,0.7,0.8,1.2,0.8c0.2,0,0.4,0,0.5-0.1l0.1-0.1 c0.7-0.3,0.9-1.1,0.6-1.8C84.8,96.5,84,96.2,83.3,96.5z M65.4,100.8c-0.7,0-1.3,0.6-1.3,1.4c0,0.7,0.6,1.3,1.4,1.3l0,0h0.1 c0.7,0,1.3-0.7,1.2-1.4C66.8,101.3,66.2,100.7,65.4,100.8z M74.6,99.5L74.6,99.5c-0.8,0.2-1.3,0.9-1.1,1.7c0.2,0.6,0.7,1,1.3,1 c0.1,0,0.2,0,0.3,0h0.1c0.7-0.2,1.2-0.9,1-1.6C76.1,99.8,75.4,99.3,74.6,99.5z M79.1,98.2L79.1,98.2c-0.8,0.3-1.2,1-0.9,1.7 c0.2,0.6,0.7,0.9,1.3,0.9c0.2,0,0.3,0,0.5-0.1l0,0c0.7-0.2,1.1-1,0.9-1.7C80.6,98.4,79.8,98,79.1,98.2z M87.4,94.4 c-0.7,0.4-0.9,1.2-0.5,1.8c0.2,0.4,0.7,0.7,1.2,0.7c0.2,0,0.4-0.1,0.6-0.2l0.1-0.1c0.6-0.4,0.8-1.2,0.5-1.8 C88.9,94.2,88.1,94,87.4,94.4z M43,96.4L43,96.4c-0.8-0.4-1.6-0.1-1.9,0.6s0,1.5,0.7,1.8h0.1c0.2,0.1,0.4,0.1,0.6,0.1 c0.5,0,1-0.3,1.2-0.8C44,97.5,43.7,96.7,43,96.4z M70.1,100.4L70.1,100.4c-0.8,0.1-1.3,0.8-1.2,1.5c0.1,0.7,0.7,1.2,1.3,1.2 c0.1,0,0.1,0,0.2,0h0.1c0.7-0.1,1.3-0.8,1.1-1.5C71.5,100.8,70.8,100.3,70.1,100.4z M47.3,98.1L47.3,98.1c-0.8-0.2-1.6,0.2-1.8,0.9 c-0.2,0.7,0.2,1.5,0.9,1.7l0,0c0.2,0.1,0.3,0.1,0.5,0.1c0.6,0,1.1-0.3,1.3-0.9C48.3,99.1,48,98.4,47.3,98.1z M51.6,99.4 c-0.7-0.2-1.5,0.2-1.7,1c-0.2,0.7,0.2,1.5,1,1.7H51c0.1,0,0.2,0,0.3,0c0.6,0,1.1-0.4,1.3-1.1C52.8,100.3,52.4,99.6,51.6,99.4z M56.2,100.3L56.2,100.3c-0.8-0.1-1.5,0.4-1.6,1.1s0.4,1.4,1.1,1.5h0.1c0.1,0,0.1,0,0.2,0c0.7,0,1.2-0.5,1.3-1.2 C57.5,101.1,57,100.4,56.2,100.3z M60.9,100.8L60.9,100.8c-0.8,0-1.5,0.6-1.5,1.3c0,0.7,0.6,1.4,1.3,1.4h0.1h0.1 c0.7,0,1.3-0.6,1.4-1.3C62.2,101.5,61.6,100.8,60.9,100.8z M33.1,92c-0.4,0.6-0.3,1.4,0.3,1.9c0,0,0,0,0.1,0 c0.2,0.2,0.5,0.2,0.7,0.2c0.4,0,0.9-0.2,1.1-0.6c0.4-0.6,0.3-1.5-0.4-1.9C34.3,91.2,33.5,91.4,33.1,92z M44.4,8c0.2,0,0.3,0,0.5-0.1 c0.7-0.3,1-1.1,0.7-1.8s-1.1-1-1.8-0.7l0,0c-0.7,0.3-1,1.1-0.7,1.8C43.3,7.6,43.8,8,44.4,8z M48.9,6.4c0.1,0,0.3,0,0.4-0.1h0.1 c0.7-0.2,1.1-1,0.9-1.7c-0.2-0.7-1-1.1-1.7-0.9h-0.1c-0.7,0.2-1.1,1-0.9,1.7C47.8,6,48.3,6.4,48.9,6.4z M72.7,5.1L72.7,5.1 c0.2,0,0.3,0,0.4,0c0.6,0,1.2-0.4,1.3-1.1c0.1-0.7-0.3-1.4-1.1-1.6h-0.1c-0.7-0.1-1.4,0.3-1.6,1.1C71.5,4.3,72,5,72.7,5.1z M77.3,6.3L77.3,6.3c0.2,0,0.4,0.1,0.5,0.1c0.6,0,1.1-0.4,1.3-1c0.2-0.7-0.2-1.5-0.9-1.7h-0.1c-0.7-0.2-1.5,0.2-1.7,0.9 C76.2,5.3,76.6,6,77.3,6.3z M63.3,4.2L63.3,4.2c0.8,0,1.4-0.6,1.4-1.4s-0.6-1.3-1.4-1.3h-0.1c-0.7,0-1.4,0.6-1.4,1.4 S62.5,4.2,63.3,4.2z M58.4,4.5L58.4,4.5h0.2c0.7-0.1,1.3-0.7,1.2-1.5c-0.1-0.7-0.7-1.3-1.5-1.2h-0.1c-0.7,0-1.2,0.7-1.1,1.4 C57.1,3.9,57.7,4.5,58.4,4.5z M53.6,5.2c0.1,0,0.2,0,0.3,0H54c0.7-0.2,1.2-0.9,1-1.7c-0.1-0.7-0.9-1.2-1.6-1.1h-0.1 c-0.7,0.1-1.2,0.9-1.1,1.6C52.4,4.7,53,5.2,53.6,5.2z M68,4.4L68,4.4c0.1,0,0.2,0,0.2,0c0.7,0,1.3-0.5,1.3-1.2 c0.1-0.7-0.5-1.4-1.2-1.5h-0.1c-0.7-0.1-1.4,0.5-1.5,1.2C66.7,3.7,67.3,4.4,68,4.4z M81.8,7.9C82,8,82.1,8,82.3,8 c0.5,0,1-0.3,1.3-0.8c0.3-0.7-0.1-1.5-0.7-1.8l0,0c-0.7-0.3-1.5,0.1-1.7,0.8C80.8,6.8,81.1,7.6,81.8,7.9z M98.2,86.1h-6.3 c-0.7,0-1.4,0.6-1.4,1.4c0,0.7,0.6,1.4,1.4,1.4h5v5c0,0.7,0.6,1.4,1.4,1.4c0.7,0,1.4-0.6,1.4-1.4v-6.3C99.6,86.7,99,86.1,98.2,86.1z M34.5,86.1h-6.3c-0.7,0-1.4,0.6-1.4,1.4v6.3c0,0.7,0.6,1.4,1.4,1.4s1.4-0.6,1.4-1.4v-5h5c0.7,0,1.4-0.6,1.4-1.4 C35.9,86.7,35.3,86.1,34.5,86.1z M15,64.1c0.7-0.2,1.2-0.9,1-1.6c-0.2-0.7-0.9-1.2-1.6-1.1c-0.7,0.2-1.2,0.9-1.1,1.6v0.1 c0.1,0.6,0.7,1,1.3,1C14.8,64.2,14.9,64.1,15,64.1z M17.1,66.9L17.1,66.9c-0.2-0.8-1-1.2-1.7-1s-1.1,1-0.9,1.7v0.1 c0.2,0.6,0.7,1,1.3,1c0.1,0,0.3,0,0.4-0.1C17,68.4,17.4,67.6,17.1,66.9z M14.1,59.6c0.7-0.1,1.3-0.8,1.2-1.5s-0.8-1.3-1.5-1.2 s-1.3,0.7-1.2,1.5v0.1c0.1,0.7,0.7,1.2,1.3,1.2C14,59.6,14,59.6,14.1,59.6z M13.6,55L13.6,55c0.8,0,1.4-0.7,1.4-1.4 s-0.6-1.4-1.4-1.3c-0.7,0-1.3,0.6-1.3,1.4v0.1C12.3,54.5,12.9,55,13.6,55z M18.7,71.1C18.7,71.1,18.6,71,18.7,71.1 c-0.3-0.8-1.1-1.1-1.8-0.8c-0.7,0.3-1,1.1-0.7,1.8l1.3-0.4l-1.2,0.5c0.2,0.5,0.7,0.8,1.2,0.8c0.2,0,0.4,0,0.5-0.1 C18.6,72.6,19,71.8,18.7,71.1z M22.9,79l-0.1-0.1c-0.4-0.6-1.3-0.8-1.9-0.4s-0.8,1.3-0.4,1.9l0,0c0.3,0.4,0.7,0.6,1.1,0.6 c0.2,0,0.5-0.1,0.7-0.2C23.1,80.5,23.3,79.7,22.9,79z M25.4,82.5c-0.5-0.6-1.3-0.6-1.9-0.2c-0.6,0.5-0.7,1.3-0.2,1.9l0,0 c0.3,0.3,0.7,0.5,1,0.5s0.6-0.1,0.8-0.3C25.8,84.1,25.9,83.2,25.4,82.5C25.5,82.6,25.4,82.6,25.4,82.5z M20.5,75.1 c-0.4-0.7-1.2-0.9-1.8-0.6c-0.7,0.4-0.9,1.2-0.6,1.8v0.1c0.2,0.4,0.7,0.7,1.1,0.7c0.2,0,0.5-0.1,0.7-0.2 C20.7,76.6,20.9,75.7,20.5,75.1z M112.5,60.4c-0.7-0.1-1.4,0.3-1.6,1.1v0.1c-0.1,0.7,0.4,1.4,1.1,1.6c0.1,0,0.2,0,0.2,0 c0.6,0,1.2-0.5,1.3-1.1V62C113.7,61.2,113.2,60.5,112.5,60.4z M111.5,64.9c-0.7-0.2-1.5,0.2-1.7,0.9v0.1c-0.2,0.7,0.2,1.5,1,1.7 c0.1,0,0.2,0,0.4,0c0.6,0,1.1-0.4,1.3-1v-0.1C112.7,65.8,112.2,65.1,111.5,64.9z M113,55.8c-0.7-0.1-1.4,0.5-1.5,1.3 c-0.1,0.7,0.5,1.4,1.2,1.5h0.1c0.7,0,1.3-0.5,1.3-1.2v-0.1C114.3,56.5,113.7,55.9,113,55.8z M113,51.2c-0.7,0-1.4,0.6-1.4,1.4v0.1 c0,0.7,0.6,1.4,1.4,1.4c0.7,0,1.4-0.6,1.4-1.4v-0.2C114.4,51.8,113.8,51.2,113,51.2z M110.2,69.3c-0.7-0.3-1.5,0.1-1.8,0.8v0.1 c-0.3,0.7,0.1,1.5,0.8,1.7c0.2,0.1,0.3,0.1,0.5,0.1c0.5,0,1.1-0.3,1.3-0.9V71C111.2,70.3,110.9,69.5,110.2,69.3z M106.3,77.6 c-0.6-0.4-1.5-0.2-1.9,0.5c-0.4,0.6-0.2,1.5,0.4,1.9c0.2,0.1,0.5,0.2,0.7,0.2c0.5,0,0.9-0.2,1.2-0.6v-0.1 C107.1,78.8,106.9,78,106.3,77.6z M101.9,81.7L101.9,81.7c-0.5,0.7-0.4,1.5,0.2,2c0.2,0.2,0.5,0.3,0.8,0.3c0.4,0,0.8-0.2,1.1-0.5 v-0.1c0.5-0.6,0.3-1.4-0.3-1.9C103.2,81,102.3,81.1,101.9,81.7z M108.4,73.5c-0.7-0.3-1.5-0.1-1.8,0.6v0.1c-0.3,0.7-0.1,1.5,0.6,1.8 c0.2,0.1,0.4,0.1,0.6,0.1c0.5,0,1-0.3,1.2-0.7v-0.1C109.4,74.7,109.1,73.9,108.4,73.5z"></path> </svg> 